<mxfile host="app.diagrams.net" agent="Mozilla/5.0 (Windows NT 10.0; Win64; x64) AppleWebKit/537.36 (KHTML, like Gecko) Chrome/137.0.0.0 Safari/537.36" version="27.2.0">
  <diagram name="Trang-1" id="xFJmxn5xScgNmrCSiUQR">
    <mxGraphModel dx="1678" dy="884" grid="0" gridSize="10" guides="1" tooltips="1" connect="1" arrows="1" fold="1" page="1" pageScale="1" pageWidth="827" pageHeight="1169" background="light-dark(#FFFFFF,#FFFFFF)" math="0" shadow="0">
      <root>
        <mxCell id="0" />
        <mxCell id="1" parent="0" />
        <mxCell id="h5cLHbmut-sbebj07vG5-1" value="&lt;font style=&quot;color: light-dark(rgb(0, 0, 0), rgb(0, 0, 0));&quot;&gt;User&lt;/font&gt;" style="rounded=0;whiteSpace=wrap;html=1;fillStyle=auto;fillColor=none;strokeWidth=1;strokeColor=light-dark(#000000,#000000);" vertex="1" parent="1">
          <mxGeometry x="351" y="17" width="63" height="29" as="geometry" />
        </mxCell>
        <mxCell id="h5cLHbmut-sbebj07vG5-13" style="edgeStyle=orthogonalEdgeStyle;rounded=0;orthogonalLoop=1;jettySize=auto;html=1;exitX=0.5;exitY=1;exitDx=0;exitDy=0;entryX=0.5;entryY=0;entryDx=0;entryDy=0;strokeColor=light-dark(#000000,#000000);" edge="1" parent="1" source="h5cLHbmut-sbebj07vG5-2" target="h5cLHbmut-sbebj07vG5-6">
          <mxGeometry relative="1" as="geometry" />
        </mxCell>
        <mxCell id="h5cLHbmut-sbebj07vG5-2" value="&lt;font style=&quot;color: light-dark(rgb(0, 0, 0), rgb(0, 0, 0));&quot;&gt;FRONTEND(Client)&lt;/font&gt;" style="rounded=0;whiteSpace=wrap;html=1;fillColor=none;strokeColor=light-dark(#000000,#000000);" vertex="1" parent="1">
          <mxGeometry x="246" y="103" width="308" height="60" as="geometry" />
        </mxCell>
        <mxCell id="h5cLHbmut-sbebj07vG5-4" value="" style="rounded=0;whiteSpace=wrap;html=1;fillColor=none;strokeColor=light-dark(#000000,#000000);" vertex="1" parent="1">
          <mxGeometry x="56" y="228" width="724" height="375" as="geometry" />
        </mxCell>
        <mxCell id="h5cLHbmut-sbebj07vG5-5" value="&lt;font style=&quot;color: light-dark(rgb(0, 0, 0), rgb(0, 0, 0));&quot;&gt;BACKEND&lt;/font&gt;" style="rounded=0;whiteSpace=wrap;html=1;fillStyle=auto;fillColor=none;strokeWidth=1;strokeColor=light-dark(#000000,#000000);rotation=-90;" vertex="1" parent="1">
          <mxGeometry x="-121" y="405" width="375" height="21" as="geometry" />
        </mxCell>
        <mxCell id="h5cLHbmut-sbebj07vG5-18" style="edgeStyle=orthogonalEdgeStyle;rounded=0;orthogonalLoop=1;jettySize=auto;html=1;exitX=0.25;exitY=1;exitDx=0;exitDy=0;entryX=0.75;entryY=0;entryDx=0;entryDy=0;" edge="1" parent="1" source="h5cLHbmut-sbebj07vG5-6" target="h5cLHbmut-sbebj07vG5-7">
          <mxGeometry relative="1" as="geometry" />
        </mxCell>
        <mxCell id="h5cLHbmut-sbebj07vG5-30" style="edgeStyle=orthogonalEdgeStyle;rounded=0;orthogonalLoop=1;jettySize=auto;html=1;exitX=0.25;exitY=1;exitDx=0;exitDy=0;entryX=0.5;entryY=0;entryDx=0;entryDy=0;strokeColor=light-dark(#000000,#000000);" edge="1" parent="1" source="h5cLHbmut-sbebj07vG5-6" target="h5cLHbmut-sbebj07vG5-7">
          <mxGeometry relative="1" as="geometry" />
        </mxCell>
        <mxCell id="h5cLHbmut-sbebj07vG5-6" value="&lt;font style=&quot;color: light-dark(rgb(0, 0, 0), rgb(0, 0, 0));&quot;&gt;Authentication&lt;/font&gt;" style="rounded=0;whiteSpace=wrap;html=1;fillColor=none;strokeColor=light-dark(#000000,#000000);" vertex="1" parent="1">
          <mxGeometry x="414" y="271" width="118" height="62" as="geometry" />
        </mxCell>
        <mxCell id="h5cLHbmut-sbebj07vG5-26" style="rounded=0;orthogonalLoop=1;jettySize=auto;html=1;exitX=0.5;exitY=1;exitDx=0;exitDy=0;entryX=0.5;entryY=0;entryDx=0;entryDy=0;strokeColor=light-dark(#000000,#000000);" edge="1" parent="1" source="h5cLHbmut-sbebj07vG5-7" target="h5cLHbmut-sbebj07vG5-24">
          <mxGeometry relative="1" as="geometry" />
        </mxCell>
        <mxCell id="h5cLHbmut-sbebj07vG5-31" style="edgeStyle=orthogonalEdgeStyle;rounded=0;orthogonalLoop=1;jettySize=auto;html=1;exitX=1;exitY=0.25;exitDx=0;exitDy=0;entryX=0.75;entryY=0;entryDx=0;entryDy=0;strokeColor=light-dark(#000000,#000000);" edge="1" parent="1" source="h5cLHbmut-sbebj07vG5-7" target="h5cLHbmut-sbebj07vG5-9">
          <mxGeometry relative="1" as="geometry" />
        </mxCell>
        <mxCell id="h5cLHbmut-sbebj07vG5-7" value="&lt;font style=&quot;color: light-dark(rgb(0, 0, 0), rgb(0, 0, 0));&quot;&gt;API&#39;s&lt;/font&gt;&lt;span style=&quot;color: rgba(0, 0, 0, 0); font-family: monospace; font-size: 0px; text-align: start; text-wrap-mode: nowrap;&quot;&gt;%3CmxGraphModel%3E%3Croot%3E%3CmxCell%20id%3D%220%22%2F%3E%3CmxCell%20id%3D%221%22%20parent%3D%220%22%2F%3E%3CmxCell%20id%3D%222%22%20value%3D%22%26lt%3Bfont%20style%3D%26quot%3Bcolor%3A%20light-dark(rgb(0%2C%200%2C%200)%2C%20rgb(0%2C%200%2C%200))%3B%26quot%3B%26gt%3BAuthentication%26lt%3B%2Ffont%26gt%3B%22%20style%3D%22rounded%3D0%3BwhiteSpace%3Dwrap%3Bhtml%3D1%3BfillColor%3Dnone%3BstrokeColor%3Dlight-dark(%23000000%2C%23000000)%3B%22%20vertex%3D%221%22%20parent%3D%221%22%3E%3CmxGeometry%20x%3D%22473%22%20y%3D%22256%22%20width%3D%22118%22%20height%3D%2262%22%20as%3D%22geometry%22%2F%3E%3C%2FmxCell%3E%3C%2Froot%3E%3C%2FmxGraphModel%3E&lt;/span&gt;" style="rounded=0;whiteSpace=wrap;html=1;fillColor=none;strokeColor=light-dark(#000000,#000000);" vertex="1" parent="1">
          <mxGeometry x="335" y="388" width="100" height="45" as="geometry" />
        </mxCell>
        <mxCell id="h5cLHbmut-sbebj07vG5-23" style="edgeStyle=orthogonalEdgeStyle;rounded=0;orthogonalLoop=1;jettySize=auto;html=1;exitX=0.5;exitY=0;exitDx=0;exitDy=0;entryX=0;entryY=0.75;entryDx=0;entryDy=0;strokeColor=light-dark(#000000,#000000);" edge="1" parent="1" source="h5cLHbmut-sbebj07vG5-8" target="h5cLHbmut-sbebj07vG5-7">
          <mxGeometry relative="1" as="geometry" />
        </mxCell>
        <mxCell id="h5cLHbmut-sbebj07vG5-27" style="rounded=0;orthogonalLoop=1;jettySize=auto;html=1;exitX=1;exitY=0.25;exitDx=0;exitDy=0;entryX=0;entryY=0.5;entryDx=0;entryDy=0;strokeColor=light-dark(#000000,#000000);edgeStyle=orthogonalEdgeStyle;" edge="1" parent="1" source="h5cLHbmut-sbebj07vG5-8" target="h5cLHbmut-sbebj07vG5-24">
          <mxGeometry relative="1" as="geometry" />
        </mxCell>
        <mxCell id="h5cLHbmut-sbebj07vG5-28" style="rounded=0;orthogonalLoop=1;jettySize=auto;html=1;exitX=1;exitY=0.5;exitDx=0;exitDy=0;entryX=0;entryY=0.75;entryDx=0;entryDy=0;strokeColor=light-dark(#000000,#000000);" edge="1" parent="1" source="h5cLHbmut-sbebj07vG5-8" target="h5cLHbmut-sbebj07vG5-9">
          <mxGeometry relative="1" as="geometry" />
        </mxCell>
        <mxCell id="h5cLHbmut-sbebj07vG5-8" value="&lt;font style=&quot;color: light-dark(rgb(0, 0, 0), rgb(0, 0, 0));&quot;&gt;Payment Gateway&lt;/font&gt;" style="rounded=0;whiteSpace=wrap;html=1;fillColor=none;strokeColor=light-dark(#000000,#000000);" vertex="1" parent="1">
          <mxGeometry x="146" y="531" width="118" height="62" as="geometry" />
        </mxCell>
        <mxCell id="h5cLHbmut-sbebj07vG5-32" style="edgeStyle=orthogonalEdgeStyle;rounded=0;orthogonalLoop=1;jettySize=auto;html=1;exitX=0.25;exitY=0;exitDx=0;exitDy=0;entryX=1;entryY=0.75;entryDx=0;entryDy=0;strokeColor=light-dark(#000000,#000000);" edge="1" parent="1" source="h5cLHbmut-sbebj07vG5-9" target="h5cLHbmut-sbebj07vG5-7">
          <mxGeometry relative="1" as="geometry" />
        </mxCell>
        <mxCell id="h5cLHbmut-sbebj07vG5-9" value="&lt;font style=&quot;color: light-dark(rgb(0, 0, 0), rgb(0, 0, 0));&quot;&gt;Datavase&lt;/font&gt;" style="rounded=0;whiteSpace=wrap;html=1;fillColor=none;strokeColor=light-dark(#000000,#000000);" vertex="1" parent="1">
          <mxGeometry x="528" y="514" width="118" height="62" as="geometry" />
        </mxCell>
        <mxCell id="h5cLHbmut-sbebj07vG5-14" style="rounded=0;orthogonalLoop=1;jettySize=auto;html=1;exitX=0.25;exitY=0;exitDx=0;exitDy=0;entryX=0.367;entryY=1.033;entryDx=0;entryDy=0;entryPerimeter=0;strokeColor=light-dark(#000000,#000000);" edge="1" parent="1" source="h5cLHbmut-sbebj07vG5-7" target="h5cLHbmut-sbebj07vG5-2">
          <mxGeometry relative="1" as="geometry" />
        </mxCell>
        <mxCell id="h5cLHbmut-sbebj07vG5-22" style="edgeStyle=orthogonalEdgeStyle;rounded=0;orthogonalLoop=1;jettySize=auto;html=1;exitX=0;exitY=0.25;exitDx=0;exitDy=0;entryX=0.144;entryY=-0.032;entryDx=0;entryDy=0;entryPerimeter=0;strokeColor=light-dark(#000000,#000000);" edge="1" parent="1" source="h5cLHbmut-sbebj07vG5-7" target="h5cLHbmut-sbebj07vG5-8">
          <mxGeometry relative="1" as="geometry" />
        </mxCell>
        <mxCell id="h5cLHbmut-sbebj07vG5-29" style="rounded=0;orthogonalLoop=1;jettySize=auto;html=1;exitX=1;exitY=0.75;exitDx=0;exitDy=0;entryX=0;entryY=0.25;entryDx=0;entryDy=0;strokeColor=light-dark(#000000,#000000);edgeStyle=orthogonalEdgeStyle;" edge="1" parent="1" source="h5cLHbmut-sbebj07vG5-24" target="h5cLHbmut-sbebj07vG5-9">
          <mxGeometry relative="1" as="geometry" />
        </mxCell>
        <mxCell id="h5cLHbmut-sbebj07vG5-24" value="&lt;font style=&quot;color: light-dark(rgb(0, 0, 0), rgb(0, 0, 0));&quot;&gt;Notification&lt;/font&gt;" style="rounded=0;whiteSpace=wrap;html=1;fillColor=none;strokeColor=light-dark(#000000,#000000);" vertex="1" parent="1">
          <mxGeometry x="328" y="482" width="120" height="26" as="geometry" />
        </mxCell>
        <mxCell id="h5cLHbmut-sbebj07vG5-34" value="" style="endArrow=classic;html=1;rounded=0;strokeColor=light-dark(#000000,#000000);entryX=0.396;entryY=0.017;entryDx=0;entryDy=0;entryPerimeter=0;exitX=0.25;exitY=1;exitDx=0;exitDy=0;" edge="1" parent="1" source="h5cLHbmut-sbebj07vG5-1" target="h5cLHbmut-sbebj07vG5-2">
          <mxGeometry width="50" height="50" relative="1" as="geometry">
            <mxPoint x="321" y="69" as="sourcePoint" />
            <mxPoint x="326" y="29" as="targetPoint" />
          </mxGeometry>
        </mxCell>
        <mxCell id="h5cLHbmut-sbebj07vG5-35" value="" style="endArrow=classic;html=1;rounded=0;strokeColor=light-dark(#000000,#000000);entryX=0.396;entryY=0.017;entryDx=0;entryDy=0;entryPerimeter=0;exitX=0.25;exitY=1;exitDx=0;exitDy=0;" edge="1" parent="1">
          <mxGeometry width="50" height="50" relative="1" as="geometry">
            <mxPoint x="395" y="104" as="sourcePoint" />
            <mxPoint x="394" y="46" as="targetPoint" />
          </mxGeometry>
        </mxCell>
        <mxCell id="h5cLHbmut-sbebj07vG5-37" value="&lt;font style=&quot;color: light-dark(rgb(0, 0, 0), rgb(0, 0, 0)); font-size: 21px;&quot;&gt;Entity&lt;/font&gt;" style="text;html=1;align=center;verticalAlign=middle;whiteSpace=wrap;rounded=0;" vertex="1" parent="1">
          <mxGeometry x="1041" y="68" width="60" height="30" as="geometry" />
        </mxCell>
        <mxCell id="h5cLHbmut-sbebj07vG5-38" value="USER" style="swimlane;fontStyle=0;childLayout=stackLayout;horizontal=1;startSize=26;horizontalStack=0;resizeParent=1;resizeParentMax=0;resizeLast=0;collapsible=1;marginBottom=0;align=center;fontSize=14;strokeColor=light-dark(#000000,#000000);" vertex="1" parent="1">
          <mxGeometry x="968" y="151" width="160" height="296" as="geometry" />
        </mxCell>
        <mxCell id="h5cLHbmut-sbebj07vG5-39" value="id" style="text;strokeColor=none;fillColor=none;spacingLeft=4;spacingRight=4;overflow=hidden;rotatable=0;points=[[0,0.5],[1,0.5]];portConstraint=eastwest;fontSize=12;whiteSpace=wrap;html=1;fontColor=light-dark(#000000,#000000);" vertex="1" parent="h5cLHbmut-sbebj07vG5-38">
          <mxGeometry y="26" width="160" height="30" as="geometry" />
        </mxCell>
        <mxCell id="h5cLHbmut-sbebj07vG5-40" value="email" style="text;strokeColor=none;fillColor=none;spacingLeft=4;spacingRight=4;overflow=hidden;rotatable=0;points=[[0,0.5],[1,0.5]];portConstraint=eastwest;fontSize=12;whiteSpace=wrap;html=1;fontColor=light-dark(#000000,#000000);" vertex="1" parent="h5cLHbmut-sbebj07vG5-38">
          <mxGeometry y="56" width="160" height="30" as="geometry" />
        </mxCell>
        <mxCell id="h5cLHbmut-sbebj07vG5-42" value="password" style="text;strokeColor=none;fillColor=none;spacingLeft=4;spacingRight=4;overflow=hidden;rotatable=0;points=[[0,0.5],[1,0.5]];portConstraint=eastwest;fontSize=12;whiteSpace=wrap;html=1;fontColor=light-dark(#000000,#000000);" vertex="1" parent="h5cLHbmut-sbebj07vG5-38">
          <mxGeometry y="86" width="160" height="30" as="geometry" />
        </mxCell>
        <mxCell id="h5cLHbmut-sbebj07vG5-43" value="firstName" style="text;strokeColor=none;fillColor=none;spacingLeft=4;spacingRight=4;overflow=hidden;rotatable=0;points=[[0,0.5],[1,0.5]];portConstraint=eastwest;fontSize=12;whiteSpace=wrap;html=1;fontColor=light-dark(#000000,#000000);" vertex="1" parent="h5cLHbmut-sbebj07vG5-38">
          <mxGeometry y="116" width="160" height="30" as="geometry" />
        </mxCell>
        <mxCell id="h5cLHbmut-sbebj07vG5-44" value="lastName" style="text;strokeColor=none;fillColor=none;spacingLeft=4;spacingRight=4;overflow=hidden;rotatable=0;points=[[0,0.5],[1,0.5]];portConstraint=eastwest;fontSize=12;whiteSpace=wrap;html=1;fontColor=light-dark(#000000,#000000);" vertex="1" parent="h5cLHbmut-sbebj07vG5-38">
          <mxGeometry y="146" width="160" height="30" as="geometry" />
        </mxCell>
        <mxCell id="h5cLHbmut-sbebj07vG5-45" value="phoneNumber" style="text;strokeColor=none;fillColor=none;spacingLeft=4;spacingRight=4;overflow=hidden;rotatable=0;points=[[0,0.5],[1,0.5]];portConstraint=eastwest;fontSize=12;whiteSpace=wrap;html=1;fontColor=light-dark(#000000,#000000);" vertex="1" parent="h5cLHbmut-sbebj07vG5-38">
          <mxGeometry y="176" width="160" height="30" as="geometry" />
        </mxCell>
        <mxCell id="h5cLHbmut-sbebj07vG5-46" value="UserRole" style="text;strokeColor=none;fillColor=none;spacingLeft=4;spacingRight=4;overflow=hidden;rotatable=0;points=[[0,0.5],[1,0.5]];portConstraint=eastwest;fontSize=12;whiteSpace=wrap;html=1;fontColor=light-dark(#000000,#000000);" vertex="1" parent="h5cLHbmut-sbebj07vG5-38">
          <mxGeometry y="206" width="160" height="30" as="geometry" />
        </mxCell>
        <mxCell id="h5cLHbmut-sbebj07vG5-47" value="isActive" style="text;strokeColor=none;fillColor=none;spacingLeft=4;spacingRight=4;overflow=hidden;rotatable=0;points=[[0,0.5],[1,0.5]];portConstraint=eastwest;fontSize=12;whiteSpace=wrap;html=1;fontColor=light-dark(#000000,#000000);" vertex="1" parent="h5cLHbmut-sbebj07vG5-38">
          <mxGeometry y="236" width="160" height="30" as="geometry" />
        </mxCell>
        <mxCell id="h5cLHbmut-sbebj07vG5-48" value="createAt" style="text;strokeColor=none;fillColor=none;spacingLeft=4;spacingRight=4;overflow=hidden;rotatable=0;points=[[0,0.5],[1,0.5]];portConstraint=eastwest;fontSize=12;whiteSpace=wrap;html=1;fontColor=light-dark(#000000,#000000);" vertex="1" parent="h5cLHbmut-sbebj07vG5-38">
          <mxGeometry y="266" width="160" height="30" as="geometry" />
        </mxCell>
        <mxCell id="h5cLHbmut-sbebj07vG5-49" value="ROOM" style="swimlane;fontStyle=0;childLayout=stackLayout;horizontal=1;startSize=26;horizontalStack=0;resizeParent=1;resizeParentMax=0;resizeLast=0;collapsible=1;marginBottom=0;align=center;fontSize=14;strokeColor=light-dark(#000000,#000000);" vertex="1" parent="1">
          <mxGeometry x="1222" y="181" width="160" height="236" as="geometry" />
        </mxCell>
        <mxCell id="h5cLHbmut-sbebj07vG5-50" value="id" style="text;strokeColor=none;fillColor=none;spacingLeft=4;spacingRight=4;overflow=hidden;rotatable=0;points=[[0,0.5],[1,0.5]];portConstraint=eastwest;fontSize=12;whiteSpace=wrap;html=1;fontColor=light-dark(#000000,#000000);" vertex="1" parent="h5cLHbmut-sbebj07vG5-49">
          <mxGeometry y="26" width="160" height="30" as="geometry" />
        </mxCell>
        <mxCell id="h5cLHbmut-sbebj07vG5-51" value="roomNumber" style="text;strokeColor=none;fillColor=none;spacingLeft=4;spacingRight=4;overflow=hidden;rotatable=0;points=[[0,0.5],[1,0.5]];portConstraint=eastwest;fontSize=12;whiteSpace=wrap;html=1;fontColor=light-dark(#000000,#000000);" vertex="1" parent="h5cLHbmut-sbebj07vG5-49">
          <mxGeometry y="56" width="160" height="30" as="geometry" />
        </mxCell>
        <mxCell id="h5cLHbmut-sbebj07vG5-52" value="type" style="text;strokeColor=none;fillColor=none;spacingLeft=4;spacingRight=4;overflow=hidden;rotatable=0;points=[[0,0.5],[1,0.5]];portConstraint=eastwest;fontSize=12;whiteSpace=wrap;html=1;fontColor=light-dark(#000000,#000000);" vertex="1" parent="h5cLHbmut-sbebj07vG5-49">
          <mxGeometry y="86" width="160" height="30" as="geometry" />
        </mxCell>
        <mxCell id="h5cLHbmut-sbebj07vG5-53" value="pricePerNight" style="text;strokeColor=none;fillColor=none;spacingLeft=4;spacingRight=4;overflow=hidden;rotatable=0;points=[[0,0.5],[1,0.5]];portConstraint=eastwest;fontSize=12;whiteSpace=wrap;html=1;fontColor=light-dark(#000000,#000000);" vertex="1" parent="h5cLHbmut-sbebj07vG5-49">
          <mxGeometry y="116" width="160" height="30" as="geometry" />
        </mxCell>
        <mxCell id="h5cLHbmut-sbebj07vG5-54" value="capacity" style="text;strokeColor=none;fillColor=none;spacingLeft=4;spacingRight=4;overflow=hidden;rotatable=0;points=[[0,0.5],[1,0.5]];portConstraint=eastwest;fontSize=12;whiteSpace=wrap;html=1;fontColor=light-dark(#000000,#000000);" vertex="1" parent="h5cLHbmut-sbebj07vG5-49">
          <mxGeometry y="146" width="160" height="30" as="geometry" />
        </mxCell>
        <mxCell id="h5cLHbmut-sbebj07vG5-55" value="description" style="text;strokeColor=none;fillColor=none;spacingLeft=4;spacingRight=4;overflow=hidden;rotatable=0;points=[[0,0.5],[1,0.5]];portConstraint=eastwest;fontSize=12;whiteSpace=wrap;html=1;fontColor=light-dark(#000000,#000000);" vertex="1" parent="h5cLHbmut-sbebj07vG5-49">
          <mxGeometry y="176" width="160" height="30" as="geometry" />
        </mxCell>
        <mxCell id="h5cLHbmut-sbebj07vG5-56" value="imageUrl" style="text;strokeColor=none;fillColor=none;spacingLeft=4;spacingRight=4;overflow=hidden;rotatable=0;points=[[0,0.5],[1,0.5]];portConstraint=eastwest;fontSize=12;whiteSpace=wrap;html=1;fontColor=light-dark(#000000,#000000);" vertex="1" parent="h5cLHbmut-sbebj07vG5-49">
          <mxGeometry y="206" width="160" height="30" as="geometry" />
        </mxCell>
        <mxCell id="h5cLHbmut-sbebj07vG5-59" value="BOOKING" style="swimlane;fontStyle=0;childLayout=stackLayout;horizontal=1;startSize=26;horizontalStack=0;resizeParent=1;resizeParentMax=0;resizeLast=0;collapsible=1;marginBottom=0;align=center;fontSize=14;strokeColor=light-dark(#000000,#000000);" vertex="1" parent="1">
          <mxGeometry x="1486" y="61" width="160" height="326" as="geometry" />
        </mxCell>
        <mxCell id="h5cLHbmut-sbebj07vG5-60" value="id" style="text;strokeColor=none;fillColor=none;spacingLeft=4;spacingRight=4;overflow=hidden;rotatable=0;points=[[0,0.5],[1,0.5]];portConstraint=eastwest;fontSize=12;whiteSpace=wrap;html=1;fontColor=light-dark(#000000,#000000);" vertex="1" parent="h5cLHbmut-sbebj07vG5-59">
          <mxGeometry y="26" width="160" height="30" as="geometry" />
        </mxCell>
        <mxCell id="h5cLHbmut-sbebj07vG5-61" value="User user" style="text;strokeColor=none;fillColor=none;spacingLeft=4;spacingRight=4;overflow=hidden;rotatable=0;points=[[0,0.5],[1,0.5]];portConstraint=eastwest;fontSize=12;whiteSpace=wrap;html=1;fontColor=light-dark(#000000,#000000);" vertex="1" parent="h5cLHbmut-sbebj07vG5-59">
          <mxGeometry y="56" width="160" height="30" as="geometry" />
        </mxCell>
        <mxCell id="h5cLHbmut-sbebj07vG5-62" value="Room room" style="text;strokeColor=none;fillColor=none;spacingLeft=4;spacingRight=4;overflow=hidden;rotatable=0;points=[[0,0.5],[1,0.5]];portConstraint=eastwest;fontSize=12;whiteSpace=wrap;html=1;fontColor=light-dark(#000000,#000000);" vertex="1" parent="h5cLHbmut-sbebj07vG5-59">
          <mxGeometry y="86" width="160" height="30" as="geometry" />
        </mxCell>
        <mxCell id="h5cLHbmut-sbebj07vG5-63" value="paymentStatus" style="text;strokeColor=none;fillColor=none;spacingLeft=4;spacingRight=4;overflow=hidden;rotatable=0;points=[[0,0.5],[1,0.5]];portConstraint=eastwest;fontSize=12;whiteSpace=wrap;html=1;fontColor=light-dark(#000000,#000000);" vertex="1" parent="h5cLHbmut-sbebj07vG5-59">
          <mxGeometry y="116" width="160" height="30" as="geometry" />
        </mxCell>
        <mxCell id="h5cLHbmut-sbebj07vG5-64" value="checkInDate" style="text;strokeColor=none;fillColor=none;spacingLeft=4;spacingRight=4;overflow=hidden;rotatable=0;points=[[0,0.5],[1,0.5]];portConstraint=eastwest;fontSize=12;whiteSpace=wrap;html=1;fontColor=light-dark(#000000,#000000);" vertex="1" parent="h5cLHbmut-sbebj07vG5-59">
          <mxGeometry y="146" width="160" height="30" as="geometry" />
        </mxCell>
        <mxCell id="h5cLHbmut-sbebj07vG5-65" value="checkOutDate" style="text;strokeColor=none;fillColor=none;spacingLeft=4;spacingRight=4;overflow=hidden;rotatable=0;points=[[0,0.5],[1,0.5]];portConstraint=eastwest;fontSize=12;whiteSpace=wrap;html=1;fontColor=light-dark(#000000,#000000);" vertex="1" parent="h5cLHbmut-sbebj07vG5-59">
          <mxGeometry y="176" width="160" height="30" as="geometry" />
        </mxCell>
        <mxCell id="h5cLHbmut-sbebj07vG5-66" value="totalPrice" style="text;strokeColor=none;fillColor=none;spacingLeft=4;spacingRight=4;overflow=hidden;rotatable=0;points=[[0,0.5],[1,0.5]];portConstraint=eastwest;fontSize=12;whiteSpace=wrap;html=1;fontColor=light-dark(#000000,#000000);" vertex="1" parent="h5cLHbmut-sbebj07vG5-59">
          <mxGeometry y="206" width="160" height="30" as="geometry" />
        </mxCell>
        <mxCell id="h5cLHbmut-sbebj07vG5-67" value="bookingReference" style="text;strokeColor=none;fillColor=none;spacingLeft=4;spacingRight=4;overflow=hidden;rotatable=0;points=[[0,0.5],[1,0.5]];portConstraint=eastwest;fontSize=12;whiteSpace=wrap;html=1;fontColor=light-dark(#000000,#000000);" vertex="1" parent="h5cLHbmut-sbebj07vG5-59">
          <mxGeometry y="236" width="160" height="30" as="geometry" />
        </mxCell>
        <mxCell id="h5cLHbmut-sbebj07vG5-68" value="createAt" style="text;strokeColor=none;fillColor=none;spacingLeft=4;spacingRight=4;overflow=hidden;rotatable=0;points=[[0,0.5],[1,0.5]];portConstraint=eastwest;fontSize=12;whiteSpace=wrap;html=1;fontColor=light-dark(#000000,#000000);" vertex="1" parent="h5cLHbmut-sbebj07vG5-59">
          <mxGeometry y="266" width="160" height="30" as="geometry" />
        </mxCell>
        <mxCell id="h5cLHbmut-sbebj07vG5-69" value="bookingStatus" style="text;strokeColor=none;fillColor=none;spacingLeft=4;spacingRight=4;overflow=hidden;rotatable=0;points=[[0,0.5],[1,0.5]];portConstraint=eastwest;fontSize=12;whiteSpace=wrap;html=1;fontColor=light-dark(#000000,#000000);" vertex="1" parent="h5cLHbmut-sbebj07vG5-59">
          <mxGeometry y="296" width="160" height="30" as="geometry" />
        </mxCell>
        <mxCell id="h5cLHbmut-sbebj07vG5-70" value="PAYMENT" style="swimlane;fontStyle=0;childLayout=stackLayout;horizontal=1;startSize=26;horizontalStack=0;resizeParent=1;resizeParentMax=0;resizeLast=0;collapsible=1;marginBottom=0;align=center;fontSize=14;strokeColor=light-dark(#000000,#000000);" vertex="1" parent="1">
          <mxGeometry x="1733" y="231" width="160" height="296" as="geometry" />
        </mxCell>
        <mxCell id="h5cLHbmut-sbebj07vG5-71" value="id" style="text;strokeColor=none;fillColor=none;spacingLeft=4;spacingRight=4;overflow=hidden;rotatable=0;points=[[0,0.5],[1,0.5]];portConstraint=eastwest;fontSize=12;whiteSpace=wrap;html=1;fontColor=light-dark(#000000,#000000);" vertex="1" parent="h5cLHbmut-sbebj07vG5-70">
          <mxGeometry y="26" width="160" height="30" as="geometry" />
        </mxCell>
        <mxCell id="h5cLHbmut-sbebj07vG5-72" value="amount" style="text;strokeColor=none;fillColor=none;spacingLeft=4;spacingRight=4;overflow=hidden;rotatable=0;points=[[0,0.5],[1,0.5]];portConstraint=eastwest;fontSize=12;whiteSpace=wrap;html=1;fontColor=light-dark(#000000,#000000);" vertex="1" parent="h5cLHbmut-sbebj07vG5-70">
          <mxGeometry y="56" width="160" height="30" as="geometry" />
        </mxCell>
        <mxCell id="h5cLHbmut-sbebj07vG5-73" value="transactionid" style="text;strokeColor=none;fillColor=none;spacingLeft=4;spacingRight=4;overflow=hidden;rotatable=0;points=[[0,0.5],[1,0.5]];portConstraint=eastwest;fontSize=12;whiteSpace=wrap;html=1;fontColor=light-dark(#000000,#000000);" vertex="1" parent="h5cLHbmut-sbebj07vG5-70">
          <mxGeometry y="86" width="160" height="30" as="geometry" />
        </mxCell>
        <mxCell id="h5cLHbmut-sbebj07vG5-74" value="paymentGateway" style="text;strokeColor=none;fillColor=none;spacingLeft=4;spacingRight=4;overflow=hidden;rotatable=0;points=[[0,0.5],[1,0.5]];portConstraint=eastwest;fontSize=12;whiteSpace=wrap;html=1;fontColor=light-dark(#000000,#000000);" vertex="1" parent="h5cLHbmut-sbebj07vG5-70">
          <mxGeometry y="116" width="160" height="30" as="geometry" />
        </mxCell>
        <mxCell id="h5cLHbmut-sbebj07vG5-75" value="paymentDate" style="text;strokeColor=none;fillColor=none;spacingLeft=4;spacingRight=4;overflow=hidden;rotatable=0;points=[[0,0.5],[1,0.5]];portConstraint=eastwest;fontSize=12;whiteSpace=wrap;html=1;fontColor=light-dark(#000000,#000000);" vertex="1" parent="h5cLHbmut-sbebj07vG5-70">
          <mxGeometry y="146" width="160" height="30" as="geometry" />
        </mxCell>
        <mxCell id="h5cLHbmut-sbebj07vG5-76" value="paymentStatus" style="text;strokeColor=none;fillColor=none;spacingLeft=4;spacingRight=4;overflow=hidden;rotatable=0;points=[[0,0.5],[1,0.5]];portConstraint=eastwest;fontSize=12;whiteSpace=wrap;html=1;fontColor=light-dark(#000000,#000000);" vertex="1" parent="h5cLHbmut-sbebj07vG5-70">
          <mxGeometry y="176" width="160" height="30" as="geometry" />
        </mxCell>
        <mxCell id="h5cLHbmut-sbebj07vG5-77" value="bookingReference" style="text;strokeColor=none;fillColor=none;spacingLeft=4;spacingRight=4;overflow=hidden;rotatable=0;points=[[0,0.5],[1,0.5]];portConstraint=eastwest;fontSize=12;whiteSpace=wrap;html=1;fontColor=light-dark(#000000,#000000);" vertex="1" parent="h5cLHbmut-sbebj07vG5-70">
          <mxGeometry y="206" width="160" height="30" as="geometry" />
        </mxCell>
        <mxCell id="h5cLHbmut-sbebj07vG5-78" value="failureReason" style="text;strokeColor=none;fillColor=none;spacingLeft=4;spacingRight=4;overflow=hidden;rotatable=0;points=[[0,0.5],[1,0.5]];portConstraint=eastwest;fontSize=12;whiteSpace=wrap;html=1;fontColor=light-dark(#000000,#000000);" vertex="1" parent="h5cLHbmut-sbebj07vG5-70">
          <mxGeometry y="236" width="160" height="30" as="geometry" />
        </mxCell>
        <mxCell id="h5cLHbmut-sbebj07vG5-101" style="edgeStyle=orthogonalEdgeStyle;rounded=0;orthogonalLoop=1;jettySize=auto;html=1;exitX=0;exitY=0.5;exitDx=0;exitDy=0;fontFamily=Helvetica;fontSize=14;fontColor=light-dark(#000000,#FFFFFF);fontStyle=0;horizontal=1;strokeColor=light-dark(#000000,#000000);" edge="1" parent="h5cLHbmut-sbebj07vG5-70" source="h5cLHbmut-sbebj07vG5-79">
          <mxGeometry relative="1" as="geometry">
            <mxPoint x="-707" y="230" as="targetPoint" />
          </mxGeometry>
        </mxCell>
        <mxCell id="h5cLHbmut-sbebj07vG5-79" value="User user" style="text;strokeColor=none;fillColor=none;spacingLeft=4;spacingRight=4;overflow=hidden;rotatable=0;points=[[0,0.5],[1,0.5]];portConstraint=eastwest;fontSize=12;whiteSpace=wrap;html=1;fontColor=light-dark(#000000,#000000);" vertex="1" parent="h5cLHbmut-sbebj07vG5-70">
          <mxGeometry y="266" width="160" height="30" as="geometry" />
        </mxCell>
        <mxCell id="h5cLHbmut-sbebj07vG5-81" value="NOTIFICATION" style="swimlane;fontStyle=0;childLayout=stackLayout;horizontal=1;startSize=26;horizontalStack=0;resizeParent=1;resizeParentMax=0;resizeLast=0;collapsible=1;marginBottom=0;align=center;fontSize=14;strokeColor=light-dark(#000000,#000000);" vertex="1" parent="1">
          <mxGeometry x="1949" y="169" width="160" height="236" as="geometry" />
        </mxCell>
        <mxCell id="h5cLHbmut-sbebj07vG5-82" value="id" style="text;strokeColor=none;fillColor=none;spacingLeft=4;spacingRight=4;overflow=hidden;rotatable=0;points=[[0,0.5],[1,0.5]];portConstraint=eastwest;fontSize=12;whiteSpace=wrap;html=1;fontColor=light-dark(#000000,#000000);" vertex="1" parent="h5cLHbmut-sbebj07vG5-81">
          <mxGeometry y="26" width="160" height="30" as="geometry" />
        </mxCell>
        <mxCell id="h5cLHbmut-sbebj07vG5-83" value="subject" style="text;strokeColor=none;fillColor=none;spacingLeft=4;spacingRight=4;overflow=hidden;rotatable=0;points=[[0,0.5],[1,0.5]];portConstraint=eastwest;fontSize=12;whiteSpace=wrap;html=1;fontColor=light-dark(#000000,#000000);" vertex="1" parent="h5cLHbmut-sbebj07vG5-81">
          <mxGeometry y="56" width="160" height="30" as="geometry" />
        </mxCell>
        <mxCell id="h5cLHbmut-sbebj07vG5-84" value="recipient" style="text;strokeColor=none;fillColor=none;spacingLeft=4;spacingRight=4;overflow=hidden;rotatable=0;points=[[0,0.5],[1,0.5]];portConstraint=eastwest;fontSize=12;whiteSpace=wrap;html=1;fontColor=light-dark(#000000,#000000);" vertex="1" parent="h5cLHbmut-sbebj07vG5-81">
          <mxGeometry y="86" width="160" height="30" as="geometry" />
        </mxCell>
        <mxCell id="h5cLHbmut-sbebj07vG5-85" value="body" style="text;strokeColor=none;fillColor=none;spacingLeft=4;spacingRight=4;overflow=hidden;rotatable=0;points=[[0,0.5],[1,0.5]];portConstraint=eastwest;fontSize=12;whiteSpace=wrap;html=1;fontColor=light-dark(#000000,#000000);" vertex="1" parent="h5cLHbmut-sbebj07vG5-81">
          <mxGeometry y="116" width="160" height="30" as="geometry" />
        </mxCell>
        <mxCell id="h5cLHbmut-sbebj07vG5-86" value="bookingReference" style="text;strokeColor=none;fillColor=none;spacingLeft=4;spacingRight=4;overflow=hidden;rotatable=0;points=[[0,0.5],[1,0.5]];portConstraint=eastwest;fontSize=12;whiteSpace=wrap;html=1;fontColor=light-dark(#000000,#000000);" vertex="1" parent="h5cLHbmut-sbebj07vG5-81">
          <mxGeometry y="146" width="160" height="30" as="geometry" />
        </mxCell>
        <mxCell id="h5cLHbmut-sbebj07vG5-87" value="type" style="text;strokeColor=none;fillColor=none;spacingLeft=4;spacingRight=4;overflow=hidden;rotatable=0;points=[[0,0.5],[1,0.5]];portConstraint=eastwest;fontSize=12;whiteSpace=wrap;html=1;fontColor=light-dark(#000000,#000000);" vertex="1" parent="h5cLHbmut-sbebj07vG5-81">
          <mxGeometry y="176" width="160" height="30" as="geometry" />
        </mxCell>
        <mxCell id="h5cLHbmut-sbebj07vG5-88" value="createAt" style="text;strokeColor=none;fillColor=none;spacingLeft=4;spacingRight=4;overflow=hidden;rotatable=0;points=[[0,0.5],[1,0.5]];portConstraint=eastwest;fontSize=12;whiteSpace=wrap;html=1;fontColor=light-dark(#000000,#000000);" vertex="1" parent="h5cLHbmut-sbebj07vG5-81">
          <mxGeometry y="206" width="160" height="30" as="geometry" />
        </mxCell>
        <mxCell id="h5cLHbmut-sbebj07vG5-91" value="BOOKING REFERENCE" style="swimlane;fontStyle=0;childLayout=stackLayout;horizontal=1;startSize=26;horizontalStack=0;resizeParent=1;resizeParentMax=0;resizeLast=0;collapsible=1;marginBottom=0;align=center;fontSize=14;strokeColor=light-dark(#000000,#000000);fontColor=light-dark(#000000,#FFFFFF);html=1;" vertex="1" parent="1">
          <mxGeometry x="2193" y="143" width="188" height="86" as="geometry" />
        </mxCell>
        <mxCell id="h5cLHbmut-sbebj07vG5-92" value="id" style="text;strokeColor=none;fillColor=none;spacingLeft=4;spacingRight=4;overflow=hidden;rotatable=0;points=[[0,0.5],[1,0.5]];portConstraint=eastwest;fontSize=12;whiteSpace=wrap;html=1;fontColor=light-dark(#000000,#000000);" vertex="1" parent="h5cLHbmut-sbebj07vG5-91">
          <mxGeometry y="26" width="188" height="30" as="geometry" />
        </mxCell>
        <mxCell id="h5cLHbmut-sbebj07vG5-93" value="referenceNo" style="text;strokeColor=none;fillColor=none;spacingLeft=4;spacingRight=4;overflow=hidden;rotatable=0;points=[[0,0.5],[1,0.5]];portConstraint=eastwest;fontSize=12;whiteSpace=wrap;html=1;fontColor=light-dark(#000000,#000000);" vertex="1" parent="h5cLHbmut-sbebj07vG5-91">
          <mxGeometry y="56" width="188" height="30" as="geometry" />
        </mxCell>
        <mxCell id="h5cLHbmut-sbebj07vG5-99" style="edgeStyle=orthogonalEdgeStyle;rounded=0;orthogonalLoop=1;jettySize=auto;html=1;exitX=0;exitY=0.5;exitDx=0;exitDy=0;entryX=0.5;entryY=0;entryDx=0;entryDy=0;fontFamily=Helvetica;fontSize=14;fontColor=light-dark(#000000,#FFFFFF);fontStyle=0;horizontal=1;strokeColor=light-dark(#000000,#000000);" edge="1" parent="1" source="h5cLHbmut-sbebj07vG5-61" target="h5cLHbmut-sbebj07vG5-38">
          <mxGeometry relative="1" as="geometry" />
        </mxCell>
        <mxCell id="h5cLHbmut-sbebj07vG5-100" style="edgeStyle=orthogonalEdgeStyle;rounded=0;orthogonalLoop=1;jettySize=auto;html=1;exitX=0;exitY=0.5;exitDx=0;exitDy=0;entryX=0.25;entryY=0;entryDx=0;entryDy=0;fontFamily=Helvetica;fontSize=14;fontColor=light-dark(#000000,#FFFFFF);fontStyle=0;horizontal=1;strokeColor=light-dark(#000000,#000000);" edge="1" parent="1" source="h5cLHbmut-sbebj07vG5-62" target="h5cLHbmut-sbebj07vG5-49">
          <mxGeometry relative="1" as="geometry" />
        </mxCell>
      </root>
    </mxGraphModel>
  </diagram>
</mxfile>
